<?xml version="1.0" standalone="no"?>
<!DOCTYPE svg PUBLIC "-//W3C//DTD SVG 20010904//EN"
 "http://www.w3.org/TR/2001/REC-SVG-20010904/DTD/svg10.dtd">
<svg version="1.0" xmlns="http://www.w3.org/2000/svg"
 width="512.000000pt" height="512.000000pt" viewBox="0 0 512.000000 512.000000"
 preserveAspectRatio="xMidYMid meet">

<g transform="translate(0.000000,512.000000) scale(0.100000,-0.100000)"
fill="#000000" stroke="none">
<path d="M3384 4674 c-54 -19 -118 -75 -152 -132 l-27 -47 -3 -1068 -2 -1067
41 -45 c47 -51 162 -127 377 -250 l152 -87 0 -293 c0 -281 1 -293 21 -319 16
-20 29 -26 60 -26 l39 0 0 -355 0 -355 -261 0 c-244 0 -261 1 -256 18 3 9 17
44 31 78 44 105 59 225 53 424 -6 187 -25 307 -72 454 -31 97 -107 259 -160
342 -156 244 -392 414 -636 458 -35 6 -36 6 -48 -36 -19 -64 -72 -153 -144
-243 -67 -83 -298 -314 -399 -399 -69 -58 -52 -65 -223 91 -130 119 -261 257
-332 350 -53 70 -113 187 -113 219 0 29 -6 29 -102 5 -492 -126 -848 -722
-814 -1366 11 -220 65 -374 166 -475 68 -67 129 -101 240 -133 158 -46 206
-47 1767 -47 1463 0 1476 0 1508 20 63 39 65 52 65 520 l0 420 40 6 c26 4 48
16 60 32 19 23 20 41 20 318 l0 293 48 27 c232 132 413 247 464 294 l58 56 -2
1064 -3 1065 -25 49 c-31 61 -97 120 -157 140 -67 23 -1215 23 -1279 0z m1194
-361 l3 -113 -386 0 c-424 0 -429 -1 -460 -60 -30 -57 -10 -127 45 -155 24
-13 89 -15 415 -15 l385 0 0 -70 0 -70 -244 0 -244 0 -30 -29 c-36 -37 -46
-81 -28 -126 28 -66 43 -70 308 -73 l238 -3 0 -65 0 -64 -380 0 c-419 0 -435
-2 -464 -59 -27 -51 -21 -98 18 -137 l34 -34 396 0 396 0 0 -176 0 -175 -47
-21 c-33 -15 -76 -23 -135 -26 -119 -6 -199 19 -316 98 -102 69 -172 97 -277
110 -74 9 -213 -1 -285 -20 -19 -6 -41 -10 -47 -10 -18 0 -19 1380 -1 1398 9
9 142 12 558 10 l545 -3 3 -112z m-731 -1478 c28 -8 81 -36 118 -61 83 -57
170 -98 255 -120 81 -21 245 -22 313 -1 l47 15 0 -99 0 -99 -67 -43 c-38 -24
-132 -80 -210 -125 l-142 -82 -137 0 -137 0 -116 66 c-64 37 -160 93 -214 126
l-97 60 2 167 3 166 85 22 c101 26 225 29 297 8z"/>
<path d="M1785 4314 c-146 -32 -257 -91 -371 -197 -182 -169 -274 -406 -260
-667 13 -252 63 -450 162 -642 118 -228 314 -400 500 -438 33 -7 99 -10 153
-8 164 8 274 61 411 198 132 133 220 292 284 512 56 193 75 473 42 613 -73
312 -284 538 -581 622 -78 22 -257 26 -340 7z"/>
</g>
</svg>
